<?xml version="1.0" standalone="no"?>
<!DOCTYPE svg PUBLIC "-//W3C//DTD SVG 20010904//EN"
 "http://www.w3.org/TR/2001/REC-SVG-20010904/DTD/svg10.dtd">
<svg version="1.0" xmlns="http://www.w3.org/2000/svg"
 width="128.000000pt" height="128.000000pt" viewBox="0 0 128.000000 128.000000"
 preserveAspectRatio="xMidYMid meet">
<metadata>
Created by potrace 1.14, written by Peter Selinger 2001-2017
</metadata>
<g transform="translate(0.000000,128.000000) scale(0.100000,-0.100000)"
fill="#000000" stroke="none">
<path d="M50 1270 c0 -5 11 -10 25 -10 20 0 25 -5 25 -25 0 -18 5 -25 20 -25
15 0 20 -7 20 -25 0 -20 5 -25 25 -25 20 0 25 -5 25 -24 0 -19 6 -25 28 -28
19 -2 28 -9 30 -24 3 -19 -5 -24 -49 -34 -40 -10 -54 -10 -57 -1 -2 6 -15 11
-28 11 -19 0 -24 5 -24 26 0 21 -4 25 -22 22 -15 -2 -23 -10 -23 -23 0 -13 8
-21 23 -23 14 -2 22 -10 22 -24 0 -16 4 -19 25 -14 27 7 24 13 60 -134 26
-109 27 -110 75 -98 45 12 47 11 50 -17 5 -44 0 -65 -16 -65 -18 0 -44 23 -44
39 0 6 -11 11 -25 11 -14 0 -25 5 -25 10 0 6 -9 10 -19 10 -14 0 -21 10 -28
38 -6 27 -14 38 -31 40 -16 2 -22 10 -22 28 0 19 -5 24 -25 24 -20 0 -25 5
-25 25 0 18 -5 25 -20 25 -17 0 -20 -7 -20 -44 0 -39 3 -45 23 -48 14 -2 23
-11 25 -25 2 -14 11 -23 25 -25 14 -2 23 -11 25 -25 2 -15 10 -23 23 -23 14 0
19 -7 19 -25 0 -20 5 -25 25 -25 17 0 25 -5 25 -17 0 -28 -16 -47 -35 -40 -21
9 -43 -12 -37 -35 2 -10 -1 -18 -7 -18 -6 0 -11 -9 -11 -20 0 -13 7 -20 20
-20 11 0 20 6 20 14 0 20 27 27 44 11 7 -8 16 -11 20 -8 3 4 6 2 6 -4 0 -12
48 -35 59 -29 4 3 33 8 64 11 51 6 57 4 57 -12 1 -10 7 -34 14 -55 l13 -36
-57 -16 -58 -16 44 -173 c24 -94 44 -187 44 -204 0 -28 4 -33 25 -33 14 0 25
-4 25 -10 0 -6 23 -9 53 -9 28 1 40 4 25 6 -22 3 -28 10 -28 29 0 19 -5 24
-27 25 -22 1 -17 4 22 16 35 11 50 12 53 4 2 -6 15 -11 28 -11 19 0 24 -5 24
-25 0 -20 5 -25 25 -25 14 0 25 -4 25 -10 0 -6 23 -9 53 -9 28 1 40 4 25 6
-22 3 -28 10 -28 29 0 19 -5 24 -24 24 -19 0 -25 6 -28 29 -4 27 -2 29 46 40
35 8 52 8 54 1 2 -5 15 -10 28 -10 17 0 24 6 24 18 0 22 69 42 119 34 25 -3
31 -9 31 -28 0 -19 5 -24 25 -24 20 0 25 -5 25 -25 0 -20 5 -25 25 -25 20 0
25 -5 25 -25 0 -20 5 -25 25 -25 14 0 25 -4 25 -10 0 -6 23 -9 53 -9 28 1 40
4 25 6 -22 3 -28 10 -28 29 0 19 -5 24 -25 24 -20 0 -25 5 -25 25 0 20 -5 25
-25 25 -20 0 -25 5 -25 25 0 20 -5 25 -25 25 -20 0 -25 5 -25 24 0 25 21 36
73 36 22 0 27 -4 27 -25 0 -20 5 -25 25 -25 20 0 25 -5 25 -25 0 -20 5 -25 25
-25 20 0 25 -5 25 -25 0 -20 5 -25 25 -25 20 0 25 -5 25 -25 0 -18 5 -25 20
-25 17 0 20 7 20 45 0 38 -3 45 -20 45 -15 0 -20 7 -20 25 0 20 -5 25 -25 25
-20 0 -25 5 -25 25 0 20 -5 25 -25 25 -18 0 -25 5 -25 20 0 13 7 20 19 20 29
0 33 14 20 66 -9 37 -10 49 -1 52 21 7 14 42 -8 42 -11 0 -20 6 -20 13 0 6 -5
29 -11 50 -8 31 -14 37 -30 32 -11 -4 -19 -2 -19 4 0 6 -7 11 -16 11 -14 0
-14 1 0 16 32 32 15 61 -40 70 -38 5 -44 10 -44 30 0 19 -5 24 -25 24 -21 0
-25 5 -25 28 0 15 -7 51 -14 80 -12 45 -12 52 0 52 8 0 14 -10 14 -25 0 -20 5
-25 25 -25 20 0 25 -5 25 -25 0 -20 5 -25 25 -25 20 0 25 -5 25 -25 0 -20 5
-25 25 -25 20 0 25 -5 25 -25 0 -20 5 -25 25 -25 20 0 25 -5 25 -25 0 -20 5
-25 25 -25 20 0 25 -5 25 -25 0 -20 5 -25 25 -25 20 0 25 -5 25 -25 0 -18 5
-25 20 -25 17 0 20 7 20 45 0 38 -3 45 -20 45 -15 0 -20 7 -20 25 0 20 -5 25
-25 25 -20 0 -25 5 -25 25 0 20 -5 25 -25 25 -20 0 -25 5 -25 25 0 20 -5 25
-25 25 -20 0 -25 5 -25 25 0 20 -5 25 -25 25 -20 0 -25 5 -25 25 0 20 -5 25
-25 25 -32 0 -36 39 -4 47 11 3 18 11 15 19 -3 7 -8 29 -12 48 -5 29 -3 36 10
36 10 0 16 9 16 25 0 20 -5 25 -24 25 -18 0 -25 7 -29 28 -3 15 -14 60 -25
100 l-20 72 24 0 c19 0 24 -5 24 -25 0 -20 5 -25 25 -25 20 0 25 -5 25 -25 0
-20 5 -25 24 -25 18 0 25 -6 28 -22 2 -15 11 -24 25 -26 14 -2 23 -11 25 -25
2 -14 11 -23 26 -25 16 -3 22 -10 22 -28 0 -19 5 -24 25 -24 18 0 25 -5 25
-20 0 -13 7 -20 20 -20 17 0 20 7 20 45 0 38 -3 45 -20 45 -15 0 -20 7 -20 25
0 20 -5 25 -25 25 -20 0 -25 5 -25 25 0 20 -5 25 -25 25 -20 0 -25 5 -25 25 0
20 -5 25 -24 25 -18 0 -25 6 -28 23 -2 14 -11 23 -25 25 -17 3 -23 10 -23 28
0 19 -5 24 -25 24 -14 0 -25 5 -25 10 0 6 -22 10 -50 10 -27 0 -50 -4 -50 -10
0 -5 11 -10 25 -10 45 0 27 -26 -25 -36 -49 -10 -50 -10 -50 13 0 18 -5 23
-25 23 -14 0 -25 5 -25 10 0 6 -22 10 -50 10 -27 0 -50 -4 -50 -10 0 -5 11
-10 25 -10 20 0 25 -5 25 -25 0 -20 5 -25 27 -25 40 0 22 -10 -56 -30 l-71
-18 0 24 c0 19 -5 24 -25 24 -20 0 -25 5 -25 25 0 20 -5 25 -25 25 -14 0 -25
5 -25 10 0 6 -11 10 -25 10 -22 0 -25 -4 -25 -35 0 -31 3 -35 25 -35 20 0 25
-5 25 -24 0 -19 6 -25 28 -28 23 -3 20 -6 -23 -19 -47 -14 -50 -14 -53 3 -2
12 -12 18 -28 18 -19 0 -24 5 -24 25 0 20 -5 25 -25 25 -20 0 -25 5 -25 25 0
20 -5 25 -25 25 -14 0 -25 5 -25 10 0 6 -20 10 -45 10 -25 0 -45 -4 -45 -10 0
-5 11 -10 25 -10 20 0 25 -5 25 -25 0 -18 5 -25 20 -25 15 0 20 -7 20 -25 0
-20 5 -25 25 -25 20 0 25 -5 25 -25 0 -17 6 -25 18 -26 9 -1 -1 -6 -23 -12
-28 -7 -40 -7 -43 2 -2 6 -15 11 -28 11 -19 0 -24 5 -24 25 0 20 -5 25 -25 25
-20 0 -25 5 -25 25 0 20 -5 25 -25 25 -20 0 -25 5 -25 25 0 20 -5 25 -25 25
-14 0 -25 5 -25 10 0 6 -20 10 -45 10 -25 0 -45 -4 -45 -10z m528 -445 c7 -25
12 -49 12 -54 0 -4 -25 -14 -55 -21 -61 -15 -64 -22 -44 -93 6 -22 9 -40 7
-42 -2 -2 -26 -10 -55 -18 l-52 -16 1 33 c1 23 7 35 22 42 17 7 21 19 23 57 2
44 1 47 -22 47 -20 0 -25 5 -25 25 0 20 -5 25 -27 26 -23 1 -20 3 17 15 80 25
120 29 120 10 0 -9 7 -16 15 -16 9 0 12 6 8 16 -6 16 11 34 32 34 6 0 16 -20
23 -45z m-188 -120 c0 -8 -2 -15 -4 -15 -2 0 -6 7 -10 15 -3 8 -1 15 4 15 6 0
10 -7 10 -15z m481 -35 c14 0 19 -7 19 -25 0 -20 5 -25 25 -25 37 0 30 -18
-10 -26 -19 -3 -35 -10 -35 -15 0 -5 -4 -9 -10 -9 -5 0 -16 23 -25 52 -18 63
-18 61 1 54 9 -3 24 -6 35 -6z m-551 -26 c0 -9 -5 -14 -12 -12 -18 6 -21 28
-4 28 9 0 16 -7 16 -16z m-70 -14 c0 -5 -4 -10 -10 -10 -5 0 -10 5 -10 10 0 6
5 10 10 10 6 0 10 -4 10 -10z m784 -59 c28 -1 28 -2 13 -19 -10 -10 -17 -30
-17 -44 0 -20 -6 -27 -26 -32 -34 -9 -42 -1 -16 15 11 7 18 19 15 26 -7 18
-33 17 -33 -2 0 -9 -6 -12 -15 -9 -9 4 -15 0 -15 -7 -1 -10 -4 -9 -11 3 -5 10
-16 15 -24 12 -28 -11 -15 -32 23 -39 l37 -8 -34 -9 c-41 -11 -61 -5 -61 20 0
14 -10 22 -32 27 l-33 7 33 11 c17 5 32 14 32 18 0 5 5 9 11 9 6 0 17 7 26 15
11 11 28 14 57 11 22 -2 54 -5 70 -5z m-244 -76 c0 -20 5 -25 25 -25 15 0 25
-6 25 -14 0 -18 -6 -22 -46 -30 -30 -7 -32 -5 -38 29 -4 20 -10 43 -13 51 -4
10 2 14 21 14 21 0 26 -5 26 -25z"/>
<path d="M1090 1270 c0 -5 11 -10 25 -10 20 0 25 -5 25 -25 0 -20 5 -25 25
-25 20 0 25 -5 25 -25 0 -20 5 -25 25 -25 20 0 25 -5 25 -25 0 -18 5 -25 20
-25 17 0 20 7 20 50 0 43 -3 50 -20 50 -15 0 -20 7 -20 25 0 20 -5 25 -25 25
-14 0 -25 5 -25 10 0 6 -22 10 -50 10 -27 0 -50 -4 -50 -10z"/>
<path d="M0 1135 c0 -18 5 -25 20 -25 15 0 20 7 20 25 0 18 -5 25 -20 25 -15
0 -20 -7 -20 -25z"/>
<path d="M1042 938 c2 -15 11 -24 24 -26 17 -2 23 -12 29 -48 5 -35 10 -44 26
-44 13 0 19 -7 19 -24 0 -18 6 -25 23 -28 14 -2 23 -11 25 -25 3 -17 10 -23
28 -23 19 0 24 -5 24 -25 0 -18 5 -25 20 -25 17 0 20 7 20 45 0 38 -3 45 -20
45 -15 0 -20 7 -20 25 0 20 -5 25 -25 25 -20 0 -25 5 -25 25 0 20 -5 25 -25
25 -20 0 -25 5 -25 25 0 20 -5 25 -25 25 -20 0 -25 5 -25 25 0 20 -5 25 -26
25 -21 0 -25 -4 -22 -22z"/>
<path d="M0 715 c0 -38 3 -45 20 -45 17 0 20 7 20 45 0 38 -3 45 -20 45 -17 0
-20 -7 -20 -45z"/>
<path d="M50 640 c0 -13 7 -20 20 -20 13 0 20 7 20 20 0 13 -7 20 -20 20 -13
0 -20 -7 -20 -20z"/>
<path d="M140 540 c0 -15 7 -20 25 -20 18 0 25 5 25 20 0 15 -7 20 -25 20 -18
0 -25 -5 -25 -20z"/>
<path d="M0 466 c0 -39 3 -45 23 -48 14 -2 23 -11 25 -25 2 -14 11 -23 25 -25
14 -2 23 -11 25 -25 2 -15 10 -23 23 -23 14 0 19 -7 19 -25 0 -20 5 -25 25
-25 20 0 25 -5 25 -24 0 -19 6 -25 28 -28 19 -2 28 -9 30 -25 2 -14 11 -23 25
-25 14 -2 23 -11 25 -25 2 -13 10 -23 18 -23 10 0 13 6 10 18 -3 9 -8 29 -12
45 -3 15 -10 27 -15 27 -5 0 -9 11 -9 25 0 20 -5 25 -25 25 -20 0 -25 5 -25
25 0 20 -5 25 -25 25 -20 0 -25 5 -25 25 0 20 -5 25 -25 25 -20 0 -25 5 -25
25 0 20 -5 25 -25 25 -20 0 -25 5 -25 25 0 20 -5 25 -25 25 -20 0 -25 5 -25
25 0 18 -5 25 -20 25 -17 0 -20 -7 -20 -44z"/>
<path d="M190 490 c0 -15 7 -20 25 -20 18 0 25 5 25 20 0 15 -7 20 -25 20 -18
0 -25 -5 -25 -20z"/>
<path d="M240 442 c0 -25 7 -31 31 -25 29 8 25 43 -6 43 -18 0 -25 -5 -25 -18z"/>
<path d="M1190 340 c0 -15 7 -20 25 -20 18 0 25 5 25 20 0 15 -7 20 -25 20
-18 0 -25 -5 -25 -20z"/>
<path d="M0 266 c0 -39 3 -45 23 -48 14 -2 23 -11 25 -25 2 -14 11 -23 25 -25
14 -2 23 -11 25 -25 2 -15 10 -23 23 -23 14 0 19 -7 19 -25 0 -20 5 -25 25
-25 20 0 25 -5 25 -25 0 -20 5 -25 25 -25 20 0 25 5 25 25 0 18 -5 25 -19 25
-16 0 -21 9 -27 45 -5 39 -10 45 -30 45 -19 0 -24 5 -24 25 0 20 -5 25 -25 25
-20 0 -25 5 -25 25 0 20 -5 25 -25 25 -20 0 -25 5 -25 25 0 18 -5 25 -20 25
-17 0 -20 -7 -20 -44z"/>
<path d="M1240 285 c0 -18 5 -25 20 -25 15 0 20 7 20 25 0 18 -5 25 -20 25
-15 0 -20 -7 -20 -25z"/>
<path d="M790 90 c0 -15 7 -20 25 -20 18 0 25 5 25 20 0 15 -7 20 -25 20 -18
0 -25 -5 -25 -20z"/>
<path d="M0 30 c0 -29 1 -30 48 -29 29 1 36 4 20 6 -22 3 -28 10 -28 29 0 17
-5 24 -20 24 -16 0 -20 -7 -20 -30z"/>
<path d="M842 33 c3 -26 6 -28 53 -29 28 -1 38 0 23 3 -22 3 -28 10 -28 29 0
19 -5 24 -26 24 -22 0 -25 -4 -22 -27z"/>
<path d="M258 3 c6 -2 18 -2 25 0 6 3 1 5 -13 5 -14 0 -19 -2 -12 -5z"/>
</g>
</svg>
